HIERARCHY
ROOT Hips
{
	OFFSET -0.001795 -0.223333 0.028219
	CHANNELS 6 Xposition Yposition Zposition Zrotation Yrotation Xrotation 
	JOINT LeftUpLeg
	{
		OFFSET 0.069520 -0.091406 -0.006815
		CHANNELS 3 Zrotation Yrotation Xrotation
		JOINT LeftLeg
		{
			OFFSET 0.034277 -0.375199 -0.004496
			CHANNELS 3 Zrotation Yrotation Xrotation
			JOINT LeftFoot
			{
				OFFSET -0.013596 -0.397961 -0.043693
				CHANNELS 3 Zrotation Yrotation Xrotation
				JOINT LeftToe
				{
					OFFSET 0.026358 -0.055791 0.119288
					CHANNELS 3 Zrotation Yrotation Xrotation
					End Site
					{
						OFFSET 0.000000 0.000000 0.000000
					}
				}
			}
		}
	}
	JOINT RightUpLeg
	{
		OFFSET -0.067670 -0.090522 -0.004320
		CHANNELS 3 Zrotation Yrotation Xrotation
		JOINT RightLeg
		{
			OFFSET -0.038290 -0.382569 -0.008850
			CHANNELS 3 Zrotation Yrotation Xrotation
			JOINT RightFoot
			{
				OFFSET 0.015774 -0.398415 -0.042312
				CHANNELS 3 Zrotation Yrotation Xrotation
				JOINT RightToe
				{
					OFFSET -0.025372 -0.048144 0.123348
					CHANNELS 3 Zrotation Yrotation Xrotation
					End Site
					{
						OFFSET 0.000000 0.000000 0.000000
					}
				}
			}
		}
	}
	JOINT Spine
	{
		OFFSET -0.002533 0.108963 -0.026696
		CHANNELS 3 Zrotation Yrotation Xrotation
		JOINT Spine1
		{
			OFFSET 0.005487 0.135180 0.001092
			CHANNELS 3 Zrotation Yrotation Xrotation
			JOINT Spine2
			{
				OFFSET 0.001457 0.052922 0.025425
				CHANNELS 3 Zrotation Yrotation Xrotation
				JOINT Neck
				{
					OFFSET -0.002778 0.213870 -0.042857
					CHANNELS 3 Zrotation Yrotation Xrotation
					JOINT Head
					{
						OFFSET 0.005152 0.064970 0.051349
						CHANNELS 3 Zrotation Yrotation Xrotation
						End Site
						{
							OFFSET 0.000000 0.000000 0.000000
						}
					}
				}
				JOINT LeftShoulder
				{
					OFFSET 0.078845 0.121749 -0.034090
					CHANNELS 3 Zrotation Yrotation Xrotation
					JOINT LeftArm
					{
						OFFSET 0.090977 0.030469 -0.008868
						CHANNELS 3 Zrotation Yrotation Xrotation
						JOINT LeftForeArm
						{
							OFFSET 0.259612 -0.012772 -0.027456
							CHANNELS 3 Zrotation Yrotation Xrotation
							JOINT LeftHand
							{
								OFFSET 0.249234 0.008986 -0.001171
								CHANNELS 3 Zrotation Yrotation Xrotation
								End Site
								{
									OFFSET 0.000000 0.000000 0.000000
								}
							}
						}
					}
				}
				JOINT RightShoulder
				{
					OFFSET -0.081759 0.118833 -0.038615
					CHANNELS 3 Zrotation Yrotation Xrotation
					JOINT RightArm
					{
						OFFSET -0.096012 0.032551 -0.009143
						CHANNELS 3 Zrotation Yrotation Xrotation
						JOINT RightForeArm
						{
							OFFSET -0.253742 -0.013329 -0.021401
							CHANNELS 3 Zrotation Yrotation Xrotation
							JOINT RightHand
							{
								OFFSET -0.255298 0.007772 -0.005559
								CHANNELS 3 Zrotation Yrotation Xrotation
								End Site
								{
									OFFSET 0.000000 0.000000 0.000000
								}
							}
						}
					}
				}
			}
		}
	}
}
MOTION
Frames: 10
Frame Time: 0.050000
0.000000 0.941368 0.000000 -2.070531 0.490392 1.948136 4.780346 -0.331368 -5.035865 -3.932629 0.424185 5.982577 4.008009 8.702145 1.056431 0.000000 0.000000 0.000000 -3.491105 0.183553 -1.277066 2.553427 0.008332 17.502017 -4.186633 -11.073077 2.392647 0.000000 0.000000 0.000000 -4.744882 0.063930 7.946609 2.899420 -0.137456 -22.885358 -0.481651 -0.135891 29.543097 1.175268 0.877933 -25.738946 0.000000 0.000000 0.000000 -22.512081 3.541973 -3.354776 -51.434769 -9.145007 -4.888194 -8.289304 -28.113256 3.677682 0.000000 0.000000 0.000000 13.875388 1.804358 0.309075 59.671043 6.087187 -5.554497 1.642957 25.368781 1.598374 0.000000 0.000000 0.000000 
0.010979 0.939338 0.017575 -2.716713 1.368215 2.229055 4.313549 -0.262156 -3.308447 -3.789191 0.391242 4.530366 3.861045 8.271099 0.622982 0.000000 0.000000 0.000000 -3.409132 0.359434 -3.798434 3.458021 -0.260797 24.330648 -4.386001 -11.930333 4.548625 0.000000 0.000000 0.000000 -4.598856 0.046753 8.085314 2.964402 -0.109960 -23.508622 -0.909281 -0.484114 30.789869 0.978388 1.109706 -27.322209 0.000000 0.000000 0.000000 -22.097245 3.829348 -3.499958 -51.649626 -9.709681 -4.783495 -6.718734 -28.175268 3.306223 0.000000 0.000000 0.000000 14.940924 0.327035 -0.375234 59.059121 5.704023 -5.902975 2.015243 27.113643 1.893079 0.000000 0.000000 0.000000 
0.020208 0.939932 0.035520 -2.482768 1.106939 1.423939 3.832609 -0.199223 -2.290326 -4.025451 0.429615 5.778694 3.608504 7.593022 0.082464 0.000000 0.000000 0.000000 -4.141472 0.700726 -9.368250 5.207823 -1.017898 36.473171 -4.685044 -13.044972 7.465123 0.000000 0.000000 0.000000 -5.741724 0.133276 8.359133 3.113833 -0.249748 -21.605611 -0.980160 -1.525830 29.653416 0.038158 1.322822 -24.743377 0.000000 0.000000 0.000000 -22.635446 3.255005 -2.878738 -49.933411 -10.296619 -4.440075 -6.186729 -27.245095 3.081349 0.000000 0.000000 0.000000 13.546435 2.740718 0.599195 59.736484 5.087026 -6.092424 1.294655 27.981929 1.674780 0.000000 0.000000 0.000000 
0.027124 0.940176 0.054393 -2.981191 1.857016 0.580672 4.112424 -0.074841 0.001540 -3.849555 0.390350 6.162124 3.445502 6.596517 -1.807397 0.000000 0.000000 0.000000 -4.258526 0.877377 -12.691757 5.968184 -1.687190 42.285672 -5.646096 -15.115609 9.175693 0.000000 0.000000 0.000000 -6.379087 0.182004 10.459972 3.783213 -0.374728 -22.390972 -0.805291 -3.539336 29.776400 -0.331771 1.325543 -26.303565 0.000000 0.000000 0.000000 -23.340904 3.423486 -2.569508 -48.684640 -10.530528 -4.419211 -5.189904 -27.615046 2.955521 0.000000 0.000000 0.000000 13.103009 2.772871 0.348682 58.495381 3.820974 -6.669417 2.961595 30.103159 2.124493 0.000000 0.000000 0.000000 
0.032124 0.941880 0.074766 -3.864870 1.995689 0.120794 4.761401 0.016925 2.206025 -3.880754 0.395342 5.499149 3.461763 6.546246 -1.999997 0.000000 0.000000 0.000000 -3.541354 1.149888 -15.909834 7.313764 -2.464325 42.988754 -6.647039 -16.935988 7.452572 0.000000 0.000000 0.000000 -6.012534 0.138486 11.772071 5.235427 -0.787436 -21.908579 -1.902427 -3.852527 29.351801 -0.474351 1.416380 -27.072967 0.000000 0.000000 0.000000 -22.984512 3.350996 -2.450095 -47.746440 -11.262131 -4.050597 -4.242512 -26.947317 2.629978 0.000000 0.000000 0.000000 12.407530 2.445765 0.174796 58.822266 3.313346 -6.889652 2.828775 31.839854 2.208927 0.000000 0.000000 0.000000 
0.035624 0.943311 0.096916 -4.545320 1.714917 0.183710 5.439947 0.094176 4.785871 -3.942804 0.411904 3.506111 3.485428 6.741309 -1.607030 0.000000 0.000000 0.000000 -2.380982 1.519753 -18.815590 7.345431 -2.220720 38.801467 -6.332754 -16.232247 6.330262 0.000000 0.000000 0.000000 -5.458730 0.080295 12.729266 5.304289 -0.746608 -22.832589 -1.945922 -4.678738 29.794569 -0.369637 1.231240 -28.154533 0.000000 0.000000 0.000000 -22.400620 3.389618 -2.106446 -47.603288 -11.445644 -4.100860 -3.581108 -27.204807 2.566956 0.000000 0.000000 0.000000 11.588777 2.552792 0.125380 59.160010 2.752448 -7.293292 2.663349 33.366749 2.217061 0.000000 0.000000 0.000000 
0.038281 0.942869 0.121134 -5.063654 1.506577 0.357881 5.220561 0.194128 6.928277 -2.614383 0.252152 2.021061 3.208216 6.284952 -1.234519 0.000000 0.000000 0.000000 -1.367248 1.896661 -21.409047 6.938978 -1.730498 32.306017 -5.827055 -15.238384 6.830168 0.000000 0.000000 0.000000 -4.824000 0.004746 13.433639 5.923132 -0.901834 -22.910391 -2.379286 -4.670993 29.580218 -0.165076 1.123914 -28.528286 0.000000 0.000000 0.000000 -21.413251 3.351142 -2.016394 -47.216191 -11.699205 -3.932482 -3.501485 -27.241244 2.532410 0.000000 0.000000 0.000000 11.595184 2.405903 0.034047 59.406795 2.700140 -7.337014 2.672236 34.450330 2.300618 0.000000 0.000000 0.000000 
0.040014 0.940641 0.147965 -5.409191 1.887672 0.624181 5.067456 0.269221 8.831237 -1.470429 0.129681 1.122010 3.314242 6.461285 -1.311331 0.000000 0.000000 0.000000 -0.612909 2.205832 -23.576989 6.596369 -1.371141 24.576038 -5.676811 -14.927534 7.149172 0.000000 0.000000 0.000000 -4.311943 -0.074630 14.333524 6.415525 -0.969478 -23.547548 -2.161862 -5.447203 29.419915 -1.151647 1.617840 -29.481038 0.000000 0.000000 0.000000 -21.431926 3.051598 -1.694861 -47.528531 -12.337761 -3.725135 -2.132135 -27.881911 2.310145 0.000000 0.000000 0.000000 11.041066 2.208997 -0.100826 59.801358 2.515959 -7.483031 2.880921 34.787517 2.335304 0.000000 0.000000 0.000000 
0.040933 0.936200 0.177560 -5.564571 2.436751 0.974089 4.424670 0.397675 10.773598 -0.002046 -0.012198 0.351599 3.329362 6.138865 -2.199984 0.000000 0.000000 0.000000 0.019157 2.383154 -24.454119 5.944679 -0.966061 15.900823 -5.518671 -14.580884 7.375463 0.000000 0.000000 0.000000 -3.919692 -0.134634 14.326407 6.762261 -1.082362 -23.064499 -2.081256 -6.254003 28.987693 -1.630002 1.824357 -30.062874 0.000000 0.000000 0.000000 -21.322520 2.978098 -1.554865 -47.782072 -13.420005 -3.268386 -2.241735 -29.251617 2.496662 0.000000 0.000000 0.000000 10.971732 2.417287 -0.081880 59.592551 2.486165 -7.444585 2.839700 34.746402 2.254966 0.000000 0.000000 0.000000 
0.040970 0.930427 0.210311 -5.326291 3.023375 1.083992 4.058243 0.518164 12.941284 0.499110 -0.054523 0.070517 3.224821 5.204747 -3.894748 0.000000 0.000000 0.000000 0.363147 2.469144 -24.972411 4.830785 -0.616809 9.278503 -4.894772 -13.137995 6.422934 0.000000 0.000000 0.000000 -3.377986 -0.229673 14.863159 7.053269 -1.147855 -23.073620 -2.368990 -6.708402 28.623082 -1.932972 1.979836 -30.371765 0.000000 0.000000 0.000000 -20.598915 2.183440 -1.065981 -47.925399 -14.245462 -2.878575 -2.280101 -30.602988 2.631834 0.000000 0.000000 0.000000 11.367068 2.995914 0.125091 59.353492 2.727575 -7.251496 1.494616 34.546655 1.827004 0.000000 0.000000 0.000000 
